<?xml version="1.0" standalone="no"?>
<!DOCTYPE svg PUBLIC "-//W3C//DTD SVG 20010904//EN"
 "http://www.w3.org/TR/2001/REC-SVG-20010904/DTD/svg10.dtd">
<svg version="1.0" xmlns="http://www.w3.org/2000/svg"
 width="512.000000pt" height="512.000000pt" viewBox="0 0 512.000000 512.000000"
 preserveAspectRatio="xMidYMid meet">

<g transform="translate(0.000000,512.000000) scale(0.100000,-0.100000)"
fill="#000000" stroke="none">
<path d="M0 2560 l0 -2560 2560 0 2560 0 0 2560 0 2560 -2560 0 -2560 0 0
-2560z m1708 1310 c249 -58 377 -331 263 -559 -36 -70 -113 -144 -189 -179
-51 -24 -69 -27 -162 -27 -99 0 -108 2 -169 33 -236 124 -291 423 -113 615 55
58 96 84 170 108 64 20 136 23 200 9z m2044 -152 c50 -15 123 -79 149 -130 64
-125 13 -279 -115 -346 l-51 -27 -665 0 -665 0 -47 23 c-195 96 -199 370 -6
466 l52 26 654 0 c473 0 666 -3 694 -12z m-1956 -823 c156 -76 239 -238 212
-410 -19 -123 -108 -239 -222 -292 -55 -25 -72 -28 -166 -28 -95 0 -111 3
-163 28 -155 76 -249 256 -219 417 49 263 321 403 558 285z m1953 -101 c38
-11 67 -29 101 -63 132 -132 92 -342 -80 -420 -44 -20 -63 -21 -695 -21 -418
0 -663 4 -687 10 -97 27 -178 135 -178 237 0 81 18 130 70 185 82 90 58 87
786 88 545 0 638 -2 683 -16z m-1994 -821 c107 -37 211 -145 242 -252 96 -333
-243 -620 -550 -464 -152 77 -240 256 -207 420 41 198 219 334 415 316 33 -3
78 -12 100 -20z m2020 -132 c196 -89 204 -361 14 -466 l-54 -30 -665 0 c-593
0 -669 2 -701 16 -204 93 -214 375 -17 473 l52 26 665 0 c623 0 669 -2 706
-19z"/>
</g>
</svg>
